<svg width="512" height="512" viewBox="0 0 512 512" fill="none" xmlns="http://www.w3.org/2000/svg" role="img" aria-labelledby="title desc">
  <title id="title">Hackatone Icon Mark</title>
  <desc id="desc">Rounded orange H monogram made from connected nodes with a yellow innovation sparkle.</desc>
  <defs>
    <linearGradient id="orangeGradient" x1="120" y1="120" x2="390" y2="395" gradientUnits="userSpaceOnUse">
      <stop offset="0" stop-color="#FF9D4D"/>
      <stop offset="0.55" stop-color="#FF8A3D"/>
      <stop offset="1" stop-color="#E96F26"/>
    </linearGradient>
    <linearGradient id="deepOrangeGradient" x1="145" y1="170" x2="365" y2="360" gradientUnits="userSpaceOnUse">
      <stop offset="0" stop-color="#E96F26" stop-opacity="0.95"/>
      <stop offset="1" stop-color="#FF8A3D" stop-opacity="0.8"/>
    </linearGradient>
  </defs>

  <g id="icon-mark">
    <path id="left-column" d="M142 172C142 147.147 162.147 127 187 127C211.853 127 232 147.147 232 172V337C232 361.853 211.853 382 187 382C162.147 382 142 361.853 142 337V172Z" fill="url(#orangeGradient)"/>
    <path id="right-column" d="M280 172C280 147.147 300.147 127 325 127C349.853 127 370 147.147 370 172V337C370 361.853 349.853 382 325 382C300.147 382 280 361.853 280 337V172Z" fill="url(#orangeGradient)"/>
    <path id="diagonal-connector-shadow" d="M187 169C211 188 232 211 256 237C280 263 301 287 325 306" stroke="url(#deepOrangeGradient)" stroke-width="82" stroke-linecap="round" opacity="0.86"/>
    <path id="main-connector" d="M187 170C211 190 232 214 256 239C280 264 301 287 325 307" stroke="url(#orangeGradient)" stroke-width="68" stroke-linecap="round"/>
    <path id="bottom-bridge" d="M187 337C211 318 229 301 256 301C283 301 301 318 325 337" stroke="url(#orangeGradient)" stroke-width="58" stroke-linecap="round"/>

    <circle id="node-top-left" cx="187" cy="172" r="19" fill="#FFF8EF"/>
    <circle id="node-bottom-left" cx="187" cy="337" r="19" fill="#FFF8EF"/>
    <circle id="node-center" cx="256" cy="254" r="19" fill="#FFF8EF"/>
    <circle id="node-top-right" cx="325" cy="172" r="19" fill="#FFF8EF"/>
    <circle id="node-bottom-right" cx="325" cy="337" r="19" fill="#FFF8EF"/>

    <g id="digital-spark" fill="#FFD166">
      <rect x="287" y="113" width="18" height="18" rx="5"/>
      <rect x="262" y="138" width="14" height="14" rx="4"/>
      <rect x="241" y="164" width="12" height="12" rx="4"/>
      <path d="M371 78C376.614 104.365 381.635 109.386 408 115C381.635 120.614 376.614 125.635 371 152C365.386 125.635 360.365 120.614 334 115C360.365 109.386 365.386 104.365 371 78Z" fill="#FFB02E"/>
    </g>
  </g>
</svg>
